<svg xmlns="http://www.w3.org/2000/svg" width="53" height="52" viewBox="-10 -10 53 52">
<path fill="#FFFFFE" opacity="1.000000" stroke="none" 
	d="
M54.000000,18.997187 
	C54.000000,30.664351 54.000000,41.830963 54.000000,52.998180 
	C36.334229,52.998787 18.668457,52.998787 1.002014,52.999393 
	C1.001343,35.667648 1.001343,18.335293 1.000671,1.002204 
	C18.665602,1.001470 36.331203,1.001470 53.998402,1.000735 
	C54.000000,6.832211 54.000000,12.664424 54.000000,18.997187 
M7.425808,9.098770 
	C6.954264,9.931891 6.079921,10.761915 6.073488,11.598613 
	C6.009171,19.962759 6.091166,28.327988 6.124189,36.692944 
	C6.135774,39.627293 6.126039,42.561729 6.126039,44.469799 
	C10.392214,44.537857 13.502184,45.555588 16.541847,43.950516 
	C20.726194,41.741001 22.025742,38.509716 21.010784,34.428623 
	C20.118401,30.840410 18.374271,27.464025 17.009794,24.002922 
	C17.537294,20.283386 19.127485,15.769260 18.556059,11.547731 
	C17.673737,5.029385 12.951251,3.978578 7.425808,9.098770 
M44.023033,11.425983 
	C45.695423,10.654837 47.367813,9.883689 49.040203,9.112542 
	C48.997097,8.539845 48.953991,7.967148 48.910885,7.394452 
	C46.033691,7.394452 43.155624,7.352938 40.279694,7.413263 
	C38.985600,7.440408 37.478107,8.173624 36.440639,7.724462 
	C31.175560,5.444987 26.125238,8.355428 25.988426,13.890268 
	C25.750814,23.503027 25.440378,33.113983 25.150763,43.059296 
	C27.240913,42.432014 29.357670,41.916618 29.073328,38.338959 
	C28.762808,34.431923 29.002741,30.481138 29.002741,26.571854 
	C44.881935,26.053045 44.881935,26.053045 47.575912,22.891800 
	C40.639729,22.891800 34.445141,22.891800 28.119095,22.891800 
	C28.871977,19.060181 29.527948,15.721775 30.186190,12.371817 
	C34.717392,12.025783 38.831860,8.241895 44.023033,11.425983 
z"/>
<path fill="#F49C27" opacity="1.000000" stroke="none" 
	d="
M7.704937,8.810975 
	C12.951251,3.978578 17.673737,5.029385 18.556059,11.547731 
	C19.127485,15.769260 17.537294,20.283386 17.009794,24.002922 
	C18.374271,27.464025 20.118401,30.840410 21.010784,34.428623 
	C22.025742,38.509716 20.726194,41.741001 16.541847,43.950516 
	C13.502184,45.555588 10.392214,44.537857 6.126039,44.469799 
	C6.126039,42.561729 6.135774,39.627293 6.124189,36.692944 
	C6.091166,28.327988 6.009171,19.962759 6.073488,11.598613 
	C6.079921,10.761915 6.954264,9.931891 7.704937,8.810975 
M9.006287,37.133953 
	C10.336402,42.672966 12.672361,43.462452 17.434990,39.813408 
	C21.509684,36.691444 19.347178,33.097004 17.888208,29.693645 
	C16.303036,25.995892 12.642397,26.559837 11.001863,28.322006 
	C9.373842,30.070734 9.592892,33.539036 9.006287,37.133953 
M10.561135,24.017876 
	C12.372657,20.409075 14.438602,16.899723 15.902351,13.154986 
	C16.812059,10.827660 15.306150,8.840772 12.817201,9.492871 
	C11.322179,9.884562 9.590723,11.778947 9.165738,13.327400 
	C8.384781,16.172857 8.361943,19.259644 8.316506,22.250296 
	C8.305171,22.996426 9.412434,23.759548 10.561135,24.017876 
z"/>
<path fill="#F59B24" opacity="1.000000" stroke="none" 
	d="
M43.685101,11.569916 
	C38.831860,8.241895 34.717392,12.025783 30.186190,12.371817 
	C29.527948,15.721775 28.871977,19.060181 28.119095,22.891800 
	C34.445141,22.891800 40.639729,22.891800 47.575912,22.891800 
	C44.881935,26.053045 44.881935,26.053045 29.002741,26.571854 
	C29.002741,30.481138 28.762808,34.431923 29.073328,38.338959 
	C29.357670,41.916618 27.240913,42.432014 25.150763,43.059296 
	C25.440378,33.113983 25.750814,23.503027 25.988426,13.890268 
	C26.125238,8.355428 31.175560,5.444987 36.440639,7.724462 
	C37.478107,8.173624 38.985600,7.440408 40.279694,7.413263 
	C43.155624,7.352938 46.033691,7.394452 48.910885,7.394452 
	C48.953991,7.967148 48.997097,8.539845 49.040203,9.112542 
	C47.367813,9.883689 45.695423,10.654837 43.685101,11.569916 
z"/>
<path fill="#FFFEFD" opacity="1.000000" stroke="none" 
	d="
M9.004086,36.693573 
	C9.592892,33.539036 9.373842,30.070734 11.001863,28.322006 
	C12.642397,26.559837 16.303036,25.995892 17.888208,29.693645 
	C19.347178,33.097004 21.509684,36.691444 17.434990,39.813408 
	C12.672361,43.462452 10.336402,42.672966 9.004086,36.693573 
z"/>
<path fill="#FFFEFD" opacity="1.000000" stroke="none" 
	d="
M10.283351,24.266369 
	C9.412434,23.759548 8.305171,22.996426 8.316506,22.250296 
	C8.361943,19.259644 8.384781,16.172857 9.165738,13.327400 
	C9.590723,11.778947 11.322179,9.884562 12.817201,9.492871 
	C15.306150,8.840772 16.812059,10.827660 15.902351,13.154986 
	C14.438602,16.899723 12.372657,20.409075 10.283351,24.266369 
z"/>
</svg>